# xmcd CD database file
#
# Track frame offsets:
#	150
#	19295
#	36127
#
# Disc length: 733 seconds
#
# Revision: 0
# Processed by: cddbd v1.5.1PL0 Copyright (c) Steve Scherf et al.
# Submitted via: CDex 1.51
#
DISCID=1d02db03
DTITLE=飯田圭織 - ドアの向こうでBellが鳴ってた
DYEAR=2004
DGENRE=JPop
TTITLE0=ドアの向こうでBellが鳴ってた
TTITLE1=泣かずにいられない私です
TTITLE2=ドアの向こうでBellが鳴ってた(instrumental)
EXTD=YEAR: 2004
EXTT0=
EXTT1=
EXTT2=
PLAYORDER=
